<svg width="71" height="12" viewBox="0 0 71 12" fill="none" xmlns="http://www.w3.org/2000/svg">
<path d="M0.02 0.684C0.324 0.612 0.652 0.564 1.004 0.539999C1.356 0.516 1.704 0.504 2.048 0.504C2.416 0.504 2.788 0.54 3.164 0.611999C3.548 0.683999 3.896 0.816 4.208 1.008C4.52 1.2 4.772 1.464 4.964 1.8C5.164 2.136 5.264 2.564 5.264 3.084C5.264 3.596 5.172 4.028 4.988 4.38C4.804 4.732 4.56 5.02 4.256 5.244C3.952 5.46 3.604 5.616 3.212 5.712C2.82 5.808 2.416 5.856 2 5.856C1.96 5.856 1.892 5.856 1.796 5.856C1.708 5.856 1.612 5.856 1.508 5.856C1.412 5.848 1.316 5.84 1.22 5.832C1.124 5.824 1.056 5.816 1.016 5.808V9H0.02V0.684ZM2.072 1.368C1.864 1.368 1.664 1.372 1.472 1.38C1.28 1.388 1.128 1.408 1.016 1.44V4.92C1.056 4.936 1.12 4.948 1.208 4.956C1.296 4.956 1.388 4.96 1.484 4.968C1.58 4.968 1.672 4.968 1.76 4.968C1.848 4.968 1.912 4.968 1.952 4.968C2.224 4.968 2.492 4.944 2.756 4.896C3.028 4.84 3.272 4.744 3.488 4.608C3.704 4.472 3.876 4.28 4.004 4.032C4.14 3.784 4.208 3.468 4.208 3.084C4.208 2.756 4.144 2.484 4.016 2.268C3.896 2.044 3.732 1.868 3.524 1.74C3.324 1.604 3.096 1.508 2.84 1.452C2.584 1.396 2.328 1.368 2.072 1.368ZM8.39113 6.888L8.72713 8.04H8.78712L9.05113 6.876L10.2151 3H11.1871L9.41113 8.388C9.27513 8.78 9.13913 9.16 9.00313 9.528C8.87513 9.896 8.73113 10.224 8.57113 10.512C8.41113 10.8 8.23113 11.028 8.03113 11.196C7.83113 11.372 7.59913 11.46 7.33513 11.46C7.04713 11.46 6.81113 11.42 6.62713 11.34L6.79513 10.512C6.89913 10.552 6.99913 10.572 7.09513 10.572C7.31913 10.572 7.53513 10.452 7.74313 10.212C7.95113 9.98 8.12313 9.576 8.25913 9L5.84713 3H6.95113L8.39113 6.888ZM13.729 6.3H13.177V9H12.217V3H13.177V5.712L13.693 5.544L15.613 3H16.657L14.797 5.412L14.293 5.808L14.917 6.288L16.921 9H15.733L13.729 6.3ZM17.4825 6C17.4825 4.984 17.7065 4.208 18.1545 3.672C18.6105 3.128 19.2625 2.856 20.1105 2.856C20.5585 2.856 20.9465 2.932 21.2745 3.084C21.6105 3.228 21.8865 3.44 22.1025 3.72C22.3185 3.992 22.4785 4.324 22.5825 4.716C22.6865 5.1 22.7385 5.528 22.7385 6C22.7385 7.016 22.5105 7.796 22.0545 8.34C21.6065 8.876 20.9585 9.144 20.1105 9.144C19.6625 9.144 19.2705 9.072 18.9345 8.928C18.6065 8.776 18.3345 8.564 18.1185 8.292C17.9025 8.012 17.7425 7.68 17.6385 7.296C17.5345 6.904 17.4825 6.472 17.4825 6ZM18.4785 6C18.4785 6.304 18.5065 6.596 18.5625 6.876C18.6265 7.156 18.7225 7.4 18.8505 7.608C18.9785 7.816 19.1465 7.984 19.3545 8.112C19.5625 8.24 19.8145 8.304 20.1105 8.304C21.1985 8.312 21.7425 7.544 21.7425 6C21.7425 5.688 21.7105 5.392 21.6465 5.112C21.5905 4.832 21.4985 4.588 21.3705 4.38C21.2425 4.172 21.0745 4.008 20.8665 3.888C20.6585 3.76 20.4065 3.696 20.1105 3.696C19.0225 3.688 18.4785 4.456 18.4785 6ZM24.2521 3.012C24.5321 2.996 24.8241 2.976 25.1281 2.952C25.4401 2.928 25.8241 2.916 26.2801 2.916C27.0721 2.916 27.6401 3.04 27.9841 3.288C28.3281 3.528 28.5001 3.896 28.5001 4.392C28.5001 4.672 28.4161 4.948 28.2481 5.22C28.0881 5.484 27.8201 5.68 27.4441 5.808V5.856C27.9161 5.944 28.2481 6.108 28.4401 6.348C28.6321 6.588 28.7281 6.908 28.7281 7.308C28.7281 7.932 28.5041 8.384 28.0561 8.664C27.6081 8.944 26.9361 9.084 26.0401 9.084C25.7041 9.084 25.3921 9.072 25.1041 9.048C24.8161 9.032 24.5321 9.012 24.2521 8.988V3.012ZM25.2121 8.196C25.3641 8.212 25.5121 8.224 25.6561 8.232C25.8081 8.24 25.9841 8.244 26.1841 8.244C26.7201 8.244 27.1161 8.168 27.3721 8.016C27.6361 7.864 27.7681 7.604 27.7681 7.236C27.7681 6.948 27.6561 6.716 27.4321 6.54C27.2161 6.356 26.8281 6.264 26.2681 6.264H25.2121V8.196ZM26.3881 5.532C26.5321 5.532 26.6721 5.508 26.8081 5.46C26.9441 5.412 27.0641 5.348 27.1681 5.268C27.2801 5.18 27.3681 5.08 27.4321 4.968C27.5041 4.856 27.5401 4.736 27.5401 4.608C27.5401 4.288 27.4441 4.068 27.2521 3.948C27.0601 3.82 26.7241 3.756 26.2441 3.756C25.9881 3.756 25.7841 3.76 25.6321 3.768C25.4881 3.776 25.3481 3.784 25.2121 3.792V5.532H26.3881ZM29.9044 6C29.9044 4.984 30.1284 4.208 30.5764 3.672C31.0324 3.128 31.6844 2.856 32.5324 2.856C32.9804 2.856 33.3684 2.932 33.6964 3.084C34.0324 3.228 34.3084 3.44 34.5244 3.72C34.7404 3.992 34.9004 4.324 35.0044 4.716C35.1084 5.1 35.1604 5.528 35.1604 6C35.1604 7.016 34.9324 7.796 34.4764 8.34C34.0284 8.876 33.3804 9.144 32.5324 9.144C32.0844 9.144 31.6924 9.072 31.3564 8.928C31.0284 8.776 30.7564 8.564 30.5404 8.292C30.3244 8.012 30.1644 7.68 30.0604 7.296C29.9564 6.904 29.9044 6.472 29.9044 6ZM30.9004 6C30.9004 6.304 30.9284 6.596 30.9844 6.876C31.0484 7.156 31.1444 7.4 31.2724 7.608C31.4004 7.816 31.5684 7.984 31.7764 8.112C31.9844 8.24 32.2364 8.304 32.5324 8.304C33.6204 8.312 34.1644 7.544 34.1644 6C34.1644 5.688 34.1324 5.392 34.0684 5.112C34.0124 4.832 33.9204 4.588 33.7924 4.38C33.6644 4.172 33.4964 4.008 33.2884 3.888C33.0804 3.76 32.8284 3.696 32.5324 3.696C31.4444 3.688 30.9004 4.456 30.9004 6ZM41.9077 10.524H41.2597L41.0797 9H36.5677L36.3877 10.524H35.7397V8.16H36.4477C36.5117 8.072 36.5957 7.916 36.6997 7.692C36.8037 7.46 36.9037 7.14 36.9997 6.732C37.1037 6.316 37.1917 5.804 37.2637 5.196C37.3437 4.58 37.3917 3.848 37.4077 3H41.0317V8.16H41.9077V10.524ZM40.0717 8.16V3.84H38.2717C38.2557 4.176 38.2277 4.544 38.1877 4.944C38.1477 5.336 38.0917 5.732 38.0197 6.132C37.9557 6.524 37.8717 6.896 37.7677 7.248C37.6637 7.6 37.5437 7.904 37.4077 8.16H40.0717ZM46.8399 5.448L46.8759 4.704H46.8399L46.3479 5.472L43.6479 9H43.0959V3H44.0559V6.66L44.0199 7.368H44.0679L44.5359 6.624L47.2359 3H47.7999V9H46.8399V5.448ZM53.4627 3.84H51.5907V9H50.6307V3.84H48.7587V3H53.4627V3.84ZM58.6087 8.52C58.3687 8.712 58.0647 8.864 57.6967 8.976C57.3367 9.088 56.9527 9.144 56.5447 9.144C56.0887 9.144 55.6927 9.072 55.3567 8.928C55.0207 8.776 54.7447 8.564 54.5287 8.292C54.3127 8.012 54.1527 7.68 54.0487 7.296C53.9447 6.912 53.8927 6.48 53.8927 6C53.8927 4.976 54.1207 4.196 54.5767 3.66C55.0327 3.124 55.6847 2.856 56.5327 2.856C56.8047 2.856 57.0767 2.888 57.3487 2.952C57.6207 3.008 57.8647 3.12 58.0807 3.288C58.2967 3.456 58.4727 3.696 58.6087 4.008C58.7447 4.312 58.8127 4.716 58.8127 5.22C58.8127 5.484 58.7887 5.776 58.7407 6.096H54.8887C54.8887 6.448 54.9247 6.76 54.9967 7.032C55.0687 7.304 55.1807 7.536 55.3327 7.728C55.4847 7.912 55.6807 8.056 55.9207 8.16C56.1687 8.256 56.4687 8.304 56.8207 8.304C57.0927 8.304 57.3647 8.256 57.6367 8.16C57.9087 8.064 58.1127 7.952 58.2487 7.824L58.6087 8.52ZM56.5447 3.696C56.0727 3.696 55.6927 3.82 55.4047 4.068C55.1247 4.316 54.9567 4.74 54.9007 5.34H57.8767C57.8767 4.732 57.7607 4.308 57.5287 4.068C57.2967 3.82 56.9687 3.696 56.5447 3.696ZM63.2809 3.84H61.5409C61.5169 4.176 61.4929 4.54 61.4689 4.932C61.4449 5.316 61.4089 5.704 61.3609 6.096C61.3129 6.48 61.2489 6.852 61.1689 7.212C61.0889 7.564 60.9849 7.876 60.8569 8.148C60.7369 8.42 60.5849 8.64 60.4009 8.808C60.2249 8.968 60.0129 9.048 59.7649 9.048C59.6129 9.048 59.4809 9.04 59.3689 9.024C59.2569 9.008 59.1569 8.98 59.0689 8.94L59.2129 8.136C59.3089 8.168 59.4129 8.184 59.5249 8.184C59.6849 8.184 59.8289 8.116 59.9569 7.98C60.0849 7.844 60.1969 7.588 60.2929 7.212C60.3889 6.828 60.4689 6.3 60.5329 5.628C60.5969 4.956 60.6409 4.08 60.6649 3H64.2409V9H63.2809V3.84ZM67.0481 8.16C67.3441 8.208 67.6281 8.232 67.9001 8.232C68.4041 8.232 68.7761 8.136 69.0161 7.944C69.2561 7.744 69.3761 7.464 69.3761 7.104C69.3761 6.784 69.2601 6.52 69.0281 6.312C68.7961 6.104 68.4321 6 67.9361 6C67.8001 6 67.6521 6.004 67.4921 6.012C67.3321 6.02 67.1841 6.044 67.0481 6.084V8.16ZM67.0481 5.292C67.2401 5.26 67.4241 5.24 67.6001 5.232C67.7761 5.216 67.9441 5.208 68.1041 5.208C68.5201 5.208 68.8721 5.256 69.1601 5.352C69.4481 5.44 69.6801 5.564 69.8561 5.724C70.0401 5.884 70.1721 6.076 70.2521 6.3C70.3321 6.516 70.3721 6.748 70.3721 6.996C70.3721 7.724 70.1521 8.252 69.7121 8.58C69.2801 8.908 68.6041 9.072 67.6841 9.072C67.1721 9.072 66.6401 9.048 66.0881 9V3H67.0481V5.292Z" fill="#6A6E72"/>
</svg>
