<svg width="83" height="12" viewBox="0 0 83 12" fill="none" xmlns="http://www.w3.org/2000/svg">
<path d="M3.78 9.048V6.408L1.476 7.728L0.612 6.216L2.892 4.896L0.612 3.576L1.476 2.064L3.78 3.384V0.744H5.532V3.384L7.812 2.064L8.676 3.576L6.396 4.896L8.676 6.216L7.812 7.728L5.532 6.408V9.048H3.78Z" fill="#D90000"/>
<path d="M18.5402 5.148H14.5082V9H13.5122V0.599999H14.5082V4.26H18.5402V0.599999H19.5362V9H18.5402V5.148ZM21.3827 3.444C21.6867 3.26 22.0387 3.124 22.4387 3.036C22.8467 2.948 23.2707 2.904 23.7107 2.904C24.1267 2.904 24.4587 2.96 24.7067 3.072C24.9627 3.184 25.1547 3.332 25.2827 3.516C25.4187 3.692 25.5067 3.888 25.5467 4.104C25.5947 4.32 25.6187 4.536 25.6187 4.752C25.6187 5.232 25.6067 5.7 25.5827 6.156C25.5587 6.612 25.5467 7.044 25.5467 7.452C25.5467 7.748 25.5587 8.028 25.5827 8.292C25.6067 8.556 25.6507 8.8 25.7147 9.024H25.0067L24.7547 8.184H24.6947C24.6227 8.296 24.5307 8.408 24.4187 8.52C24.3147 8.624 24.1867 8.72 24.0347 8.808C23.8827 8.888 23.7067 8.956 23.5067 9.012C23.3067 9.068 23.0787 9.096 22.8227 9.096C22.5667 9.096 22.3267 9.056 22.1027 8.976C21.8867 8.896 21.6987 8.784 21.5387 8.64C21.3787 8.488 21.2507 8.308 21.1547 8.1C21.0667 7.892 21.0227 7.656 21.0227 7.392C21.0227 7.04 21.0947 6.748 21.2387 6.516C21.3827 6.276 21.5827 6.088 21.8387 5.952C22.1027 5.808 22.4147 5.708 22.7747 5.652C23.1427 5.588 23.5467 5.556 23.9867 5.556C24.0987 5.556 24.2067 5.556 24.3107 5.556C24.4227 5.556 24.5347 5.564 24.6467 5.58C24.6707 5.34 24.6827 5.124 24.6827 4.932C24.6827 4.492 24.5947 4.184 24.4187 4.008C24.2427 3.832 23.9227 3.744 23.4587 3.744C23.3227 3.744 23.1747 3.756 23.0147 3.78C22.8627 3.796 22.7027 3.824 22.5347 3.864C22.3747 3.896 22.2187 3.94 22.0667 3.996C21.9227 4.044 21.7947 4.1 21.6827 4.164L21.3827 3.444ZM23.0867 8.256C23.3107 8.256 23.5107 8.228 23.6867 8.172C23.8627 8.108 24.0147 8.032 24.1427 7.944C24.2707 7.848 24.3747 7.744 24.4547 7.632C24.5427 7.52 24.6067 7.412 24.6467 7.308V6.312C24.5347 6.304 24.4187 6.3 24.2987 6.3C24.1867 6.292 24.0747 6.288 23.9627 6.288C23.7147 6.288 23.4707 6.304 23.2307 6.336C22.9987 6.36 22.7907 6.412 22.6067 6.492C22.4307 6.564 22.2867 6.668 22.1747 6.804C22.0707 6.932 22.0187 7.096 22.0187 7.296C22.0187 7.576 22.1187 7.808 22.3187 7.992C22.5187 8.168 22.7747 8.256 23.0867 8.256ZM31.0438 3.84H28.3918V9H27.4318V3H32.0038V9H31.0438V3.84ZM33.8537 3H34.5137L34.6937 3.72H34.7417C34.9257 3.44 35.1617 3.228 35.4497 3.084C35.7457 2.932 36.0817 2.856 36.4577 2.856C37.2577 2.856 37.8537 3.092 38.2457 3.564C38.6377 4.036 38.8337 4.808 38.8337 5.88C38.8337 6.384 38.7657 6.84 38.6297 7.248C38.5017 7.648 38.3177 7.988 38.0777 8.268C37.8377 8.548 37.5457 8.764 37.2017 8.916C36.8657 9.068 36.4897 9.144 36.0737 9.144C35.7777 9.144 35.5417 9.124 35.3657 9.084C35.1977 9.052 35.0137 8.992 34.8137 8.904V11.4H33.8537V3ZM36.2777 3.696C35.8697 3.696 35.5457 3.804 35.3057 4.02C35.0737 4.228 34.9097 4.548 34.8137 4.98V7.956C34.9577 8.068 35.1217 8.156 35.3057 8.22C35.4897 8.276 35.7337 8.304 36.0377 8.304C36.5897 8.304 37.0257 8.1 37.3457 7.692C37.6737 7.276 37.8377 6.668 37.8377 5.868C37.8377 5.54 37.8097 5.244 37.7537 4.98C37.6977 4.708 37.6057 4.48 37.4777 4.296C37.3577 4.104 37.1977 3.956 36.9977 3.852C36.8057 3.748 36.5657 3.696 36.2777 3.696ZM40.2499 3.444C40.5539 3.26 40.9059 3.124 41.3059 3.036C41.7139 2.948 42.1379 2.904 42.5779 2.904C42.9939 2.904 43.3259 2.96 43.5739 3.072C43.8299 3.184 44.0219 3.332 44.1499 3.516C44.2859 3.692 44.3739 3.888 44.4139 4.104C44.4619 4.32 44.4859 4.536 44.4859 4.752C44.4859 5.232 44.4739 5.7 44.4499 6.156C44.4259 6.612 44.4139 7.044 44.4139 7.452C44.4139 7.748 44.4259 8.028 44.4499 8.292C44.4739 8.556 44.5179 8.8 44.5819 9.024H43.8739L43.6219 8.184H43.5619C43.4899 8.296 43.3979 8.408 43.2859 8.52C43.1819 8.624 43.0539 8.72 42.9019 8.808C42.7499 8.888 42.5739 8.956 42.3739 9.012C42.1739 9.068 41.9459 9.096 41.6899 9.096C41.4339 9.096 41.1939 9.056 40.9699 8.976C40.7539 8.896 40.5659 8.784 40.4059 8.64C40.2459 8.488 40.1179 8.308 40.0219 8.1C39.9339 7.892 39.8899 7.656 39.8899 7.392C39.8899 7.04 39.9619 6.748 40.1059 6.516C40.2499 6.276 40.4499 6.088 40.7059 5.952C40.9699 5.808 41.2819 5.708 41.6419 5.652C42.0099 5.588 42.4139 5.556 42.8539 5.556C42.9659 5.556 43.0739 5.556 43.1779 5.556C43.2899 5.556 43.4019 5.564 43.5139 5.58C43.5379 5.34 43.5499 5.124 43.5499 4.932C43.5499 4.492 43.4619 4.184 43.2859 4.008C43.1099 3.832 42.7899 3.744 42.3259 3.744C42.1899 3.744 42.0419 3.756 41.8819 3.78C41.7299 3.796 41.5699 3.824 41.4019 3.864C41.2419 3.896 41.0859 3.94 40.9339 3.996C40.7899 4.044 40.6619 4.1 40.5499 4.164L40.2499 3.444ZM41.9539 8.256C42.1779 8.256 42.3779 8.228 42.5539 8.172C42.7299 8.108 42.8819 8.032 43.0099 7.944C43.1379 7.848 43.2419 7.744 43.3219 7.632C43.4099 7.52 43.4739 7.412 43.5139 7.308V6.312C43.4019 6.304 43.2859 6.3 43.1659 6.3C43.0539 6.292 42.9419 6.288 42.8299 6.288C42.5819 6.288 42.3379 6.304 42.0979 6.336C41.8659 6.36 41.6579 6.412 41.4739 6.492C41.2979 6.564 41.1539 6.668 41.0419 6.804C40.9379 6.932 40.8859 7.096 40.8859 7.296C40.8859 7.576 40.9859 7.808 41.1859 7.992C41.3859 8.168 41.6419 8.256 41.9539 8.256ZM46.299 3.012C46.579 2.996 46.871 2.976 47.175 2.952C47.487 2.928 47.871 2.916 48.327 2.916C49.119 2.916 49.687 3.04 50.031 3.288C50.375 3.528 50.547 3.896 50.547 4.392C50.547 4.672 50.463 4.948 50.295 5.22C50.135 5.484 49.867 5.68 49.491 5.808V5.856C49.963 5.944 50.295 6.108 50.487 6.348C50.679 6.588 50.775 6.908 50.775 7.308C50.775 7.932 50.551 8.384 50.103 8.664C49.655 8.944 48.983 9.084 48.087 9.084C47.751 9.084 47.439 9.072 47.151 9.048C46.863 9.032 46.579 9.012 46.299 8.988V3.012ZM47.259 8.196C47.411 8.212 47.559 8.224 47.703 8.232C47.855 8.24 48.031 8.244 48.231 8.244C48.767 8.244 49.163 8.168 49.419 8.016C49.683 7.864 49.815 7.604 49.815 7.236C49.815 6.948 49.703 6.716 49.479 6.54C49.263 6.356 48.875 6.264 48.315 6.264H47.259V8.196ZM48.435 5.532C48.579 5.532 48.719 5.508 48.855 5.46C48.991 5.412 49.111 5.348 49.215 5.268C49.327 5.18 49.415 5.08 49.479 4.968C49.551 4.856 49.587 4.736 49.587 4.608C49.587 4.288 49.491 4.068 49.299 3.948C49.107 3.82 48.771 3.756 48.291 3.756C48.035 3.756 47.831 3.76 47.679 3.768C47.535 3.776 47.395 3.784 47.259 3.792V5.532H48.435ZM55.5153 3.84H53.7753C53.7513 4.176 53.7273 4.54 53.7033 4.932C53.6793 5.316 53.6433 5.704 53.5953 6.096C53.5473 6.48 53.4833 6.852 53.4033 7.212C53.3233 7.564 53.2193 7.876 53.0913 8.148C52.9713 8.42 52.8193 8.64 52.6353 8.808C52.4593 8.968 52.2473 9.048 51.9993 9.048C51.8473 9.048 51.7153 9.04 51.6033 9.024C51.4913 9.008 51.3913 8.98 51.3033 8.94L51.4473 8.136C51.5433 8.168 51.6473 8.184 51.7593 8.184C51.9193 8.184 52.0633 8.116 52.1913 7.98C52.3193 7.844 52.4313 7.588 52.5273 7.212C52.6233 6.828 52.7033 6.3 52.7673 5.628C52.8313 4.956 52.8753 4.08 52.8993 3H56.4753V9H55.5153V3.84ZM62.7024 8.52C62.4624 8.712 62.1584 8.864 61.7904 8.976C61.4304 9.088 61.0464 9.144 60.6384 9.144C60.1824 9.144 59.7864 9.072 59.4504 8.928C59.1144 8.776 58.8384 8.564 58.6224 8.292C58.4064 8.012 58.2464 7.68 58.1424 7.296C58.0384 6.912 57.9864 6.48 57.9864 6C57.9864 4.976 58.2144 4.196 58.6704 3.66C59.1264 3.124 59.7784 2.856 60.6264 2.856C60.8984 2.856 61.1704 2.888 61.4424 2.952C61.7144 3.008 61.9584 3.12 62.1744 3.288C62.3904 3.456 62.5664 3.696 62.7024 4.008C62.8384 4.312 62.9064 4.716 62.9064 5.22C62.9064 5.484 62.8824 5.776 62.8344 6.096H58.9824C58.9824 6.448 59.0184 6.76 59.0904 7.032C59.1624 7.304 59.2744 7.536 59.4264 7.728C59.5784 7.912 59.7744 8.056 60.0144 8.16C60.2624 8.256 60.5624 8.304 60.9144 8.304C61.1864 8.304 61.4584 8.256 61.7304 8.16C62.0024 8.064 62.2064 7.952 62.3424 7.824L62.7024 8.52ZM60.6384 3.696C60.1664 3.696 59.7864 3.82 59.4984 4.068C59.2184 4.316 59.0504 4.74 58.9944 5.34H61.9704C61.9704 4.732 61.8544 4.308 61.6224 4.068C61.3904 3.82 61.0624 3.696 60.6384 3.696ZM68.0882 6.348H65.3762V9H64.4162V3H65.3762V5.508H68.0882V3H69.0482V9H68.0882V6.348ZM74.6407 5.448L74.6767 4.704H74.6407L74.1487 5.472L71.4487 9H70.8967V3H71.8567V6.66L71.8207 7.368H71.8687L72.3367 6.624L75.0367 3H75.6007V9H74.6407V5.448ZM81.8274 8.52C81.5874 8.712 81.2834 8.864 80.9154 8.976C80.5554 9.088 80.1714 9.144 79.7634 9.144C79.3074 9.144 78.9114 9.072 78.5754 8.928C78.2394 8.776 77.9634 8.564 77.7474 8.292C77.5314 8.012 77.3714 7.68 77.2674 7.296C77.1634 6.912 77.1114 6.48 77.1114 6C77.1114 4.976 77.3394 4.196 77.7954 3.66C78.2514 3.124 78.9034 2.856 79.7514 2.856C80.0234 2.856 80.2954 2.888 80.5674 2.952C80.8394 3.008 81.0834 3.12 81.2994 3.288C81.5154 3.456 81.6914 3.696 81.8274 4.008C81.9634 4.312 82.0314 4.716 82.0314 5.22C82.0314 5.484 82.0074 5.776 81.9594 6.096H78.1074C78.1074 6.448 78.1434 6.76 78.2154 7.032C78.2874 7.304 78.3994 7.536 78.5514 7.728C78.7034 7.912 78.8994 8.056 79.1394 8.16C79.3874 8.256 79.6874 8.304 80.0394 8.304C80.3114 8.304 80.5834 8.256 80.8554 8.16C81.1274 8.064 81.3314 7.952 81.4674 7.824L81.8274 8.52ZM79.7634 3.696C79.2914 3.696 78.9114 3.82 78.6234 4.068C78.3434 4.316 78.1754 4.74 78.1194 5.34H81.0954C81.0954 4.732 80.9794 4.308 80.7474 4.068C80.5154 3.82 80.1874 3.696 79.7634 3.696Z" fill="#6A6E72"/>
</svg>
