<svg width="133" height="12" viewBox="0 0 133 12" fill="none" xmlns="http://www.w3.org/2000/svg">
<path d="M3.78 9.048V6.408L1.476 7.728L0.612 6.216L2.892 4.896L0.612 3.576L1.476 2.064L3.78 3.384V0.744H5.532V3.384L7.812 2.064L8.676 3.576L6.396 4.896L8.676 6.216L7.812 7.728L5.532 6.408V9.048H3.78Z" fill="#D90000"/>
<path d="M18.5402 5.148H14.5082V9H13.5122V0.599999H14.5082V4.26H18.5402V0.599999H19.5362V9H18.5402V5.148ZM21.3827 3.444C21.6867 3.26 22.0387 3.124 22.4387 3.036C22.8467 2.948 23.2707 2.904 23.7107 2.904C24.1267 2.904 24.4587 2.96 24.7067 3.072C24.9627 3.184 25.1547 3.332 25.2827 3.516C25.4187 3.692 25.5067 3.888 25.5467 4.104C25.5947 4.32 25.6187 4.536 25.6187 4.752C25.6187 5.232 25.6067 5.7 25.5827 6.156C25.5587 6.612 25.5467 7.044 25.5467 7.452C25.5467 7.748 25.5587 8.028 25.5827 8.292C25.6067 8.556 25.6507 8.8 25.7147 9.024H25.0067L24.7547 8.184H24.6947C24.6227 8.296 24.5307 8.408 24.4187 8.52C24.3147 8.624 24.1867 8.72 24.0347 8.808C23.8827 8.888 23.7067 8.956 23.5067 9.012C23.3067 9.068 23.0787 9.096 22.8227 9.096C22.5667 9.096 22.3267 9.056 22.1027 8.976C21.8867 8.896 21.6987 8.784 21.5387 8.64C21.3787 8.488 21.2507 8.308 21.1547 8.1C21.0667 7.892 21.0227 7.656 21.0227 7.392C21.0227 7.04 21.0947 6.748 21.2387 6.516C21.3827 6.276 21.5827 6.088 21.8387 5.952C22.1027 5.808 22.4147 5.708 22.7747 5.652C23.1427 5.588 23.5467 5.556 23.9867 5.556C24.0987 5.556 24.2067 5.556 24.3107 5.556C24.4227 5.556 24.5347 5.564 24.6467 5.58C24.6707 5.34 24.6827 5.124 24.6827 4.932C24.6827 4.492 24.5947 4.184 24.4187 4.008C24.2427 3.832 23.9227 3.744 23.4587 3.744C23.3227 3.744 23.1747 3.756 23.0147 3.78C22.8627 3.796 22.7027 3.824 22.5347 3.864C22.3747 3.896 22.2187 3.94 22.0667 3.996C21.9227 4.044 21.7947 4.1 21.6827 4.164L21.3827 3.444ZM23.0867 8.256C23.3107 8.256 23.5107 8.228 23.6867 8.172C23.8627 8.108 24.0147 8.032 24.1427 7.944C24.2707 7.848 24.3747 7.744 24.4547 7.632C24.5427 7.52 24.6067 7.412 24.6467 7.308V6.312C24.5347 6.304 24.4187 6.3 24.2987 6.3C24.1867 6.292 24.0747 6.288 23.9627 6.288C23.7147 6.288 23.4707 6.304 23.2307 6.336C22.9987 6.36 22.7907 6.412 22.6067 6.492C22.4307 6.564 22.2867 6.668 22.1747 6.804C22.0707 6.932 22.0187 7.096 22.0187 7.296C22.0187 7.576 22.1187 7.808 22.3187 7.992C22.5187 8.168 22.7747 8.256 23.0867 8.256ZM28.0078 6.324V5.544H28.8478C28.9918 5.544 29.1318 5.52 29.2678 5.472C29.4118 5.424 29.5398 5.36 29.6518 5.28C29.7638 5.192 29.8518 5.092 29.9158 4.98C29.9878 4.86 30.0238 4.736 30.0238 4.608C30.0238 4.296 29.9158 4.076 29.6998 3.948C29.4838 3.82 29.1598 3.756 28.7278 3.756C28.4158 3.756 28.1278 3.804 27.8638 3.9C27.6078 3.996 27.4078 4.088 27.2638 4.176L26.9878 3.432C27.2278 3.296 27.5078 3.176 27.8278 3.072C28.1558 2.968 28.5438 2.916 28.9918 2.916C30.3198 2.916 30.9838 3.408 30.9838 4.392C30.9838 4.672 30.8918 4.948 30.7078 5.22C30.5318 5.484 30.2758 5.672 29.9398 5.784V5.832C30.4118 5.92 30.7398 6.088 30.9238 6.336C31.1158 6.584 31.2118 6.912 31.2118 7.32C31.2118 7.576 31.1598 7.812 31.0558 8.028C30.9518 8.244 30.7958 8.432 30.5878 8.592C30.3798 8.752 30.1158 8.88 29.7958 8.976C29.4838 9.064 29.1198 9.108 28.7038 9.108C28.2958 9.108 27.9558 9.072 27.6838 9C27.4198 8.928 27.1798 8.84 26.9638 8.736L27.2398 7.944C27.4238 8.048 27.6438 8.128 27.8998 8.184C28.1638 8.24 28.4478 8.268 28.7518 8.268C29.2398 8.268 29.6118 8.184 29.8678 8.016C30.1238 7.848 30.2518 7.592 30.2518 7.248C30.2518 6.96 30.1318 6.736 29.8918 6.576C29.6518 6.408 29.2558 6.324 28.7038 6.324H28.0078ZM32.7287 3.012C33.0087 2.996 33.3007 2.976 33.6047 2.952C33.9167 2.928 34.3007 2.916 34.7567 2.916C35.5487 2.916 36.1167 3.04 36.4607 3.288C36.8047 3.528 36.9767 3.896 36.9767 4.392C36.9767 4.672 36.8927 4.948 36.7247 5.22C36.5647 5.484 36.2967 5.68 35.9207 5.808V5.856C36.3927 5.944 36.7247 6.108 36.9167 6.348C37.1087 6.588 37.2047 6.908 37.2047 7.308C37.2047 7.932 36.9807 8.384 36.5327 8.664C36.0847 8.944 35.4127 9.084 34.5167 9.084C34.1807 9.084 33.8687 9.072 33.5807 9.048C33.2927 9.032 33.0087 9.012 32.7287 8.988V3.012ZM33.6887 8.196C33.8407 8.212 33.9887 8.224 34.1327 8.232C34.2847 8.24 34.4607 8.244 34.6607 8.244C35.1967 8.244 35.5927 8.168 35.8487 8.016C36.1127 7.864 36.2447 7.604 36.2447 7.236C36.2447 6.948 36.1327 6.716 35.9087 6.54C35.6927 6.356 35.3047 6.264 34.7447 6.264H33.6887V8.196ZM34.8647 5.532C35.0087 5.532 35.1487 5.508 35.2847 5.46C35.4207 5.412 35.5407 5.348 35.6447 5.268C35.7567 5.18 35.8447 5.08 35.9087 4.968C35.9807 4.856 36.0167 4.736 36.0167 4.608C36.0167 4.288 35.9207 4.068 35.7287 3.948C35.5367 3.82 35.2007 3.756 34.7207 3.756C34.4647 3.756 34.2607 3.76 34.1087 3.768C33.9647 3.776 33.8247 3.784 33.6887 3.792V5.532H34.8647ZM38.621 3.444C38.925 3.26 39.277 3.124 39.677 3.036C40.085 2.948 40.509 2.904 40.949 2.904C41.365 2.904 41.697 2.96 41.945 3.072C42.201 3.184 42.393 3.332 42.521 3.516C42.657 3.692 42.745 3.888 42.785 4.104C42.833 4.32 42.857 4.536 42.857 4.752C42.857 5.232 42.845 5.7 42.821 6.156C42.797 6.612 42.785 7.044 42.785 7.452C42.785 7.748 42.797 8.028 42.821 8.292C42.845 8.556 42.889 8.8 42.953 9.024H42.245L41.993 8.184H41.933C41.861 8.296 41.769 8.408 41.657 8.52C41.553 8.624 41.425 8.72 41.273 8.808C41.121 8.888 40.945 8.956 40.745 9.012C40.545 9.068 40.317 9.096 40.061 9.096C39.805 9.096 39.565 9.056 39.341 8.976C39.125 8.896 38.937 8.784 38.777 8.64C38.617 8.488 38.489 8.308 38.393 8.1C38.305 7.892 38.261 7.656 38.261 7.392C38.261 7.04 38.333 6.748 38.477 6.516C38.621 6.276 38.821 6.088 39.077 5.952C39.341 5.808 39.653 5.708 40.013 5.652C40.381 5.588 40.785 5.556 41.225 5.556C41.337 5.556 41.445 5.556 41.549 5.556C41.661 5.556 41.773 5.564 41.885 5.58C41.909 5.34 41.921 5.124 41.921 4.932C41.921 4.492 41.833 4.184 41.657 4.008C41.481 3.832 41.161 3.744 40.697 3.744C40.561 3.744 40.413 3.756 40.253 3.78C40.101 3.796 39.941 3.824 39.773 3.864C39.613 3.896 39.457 3.94 39.305 3.996C39.161 4.044 39.033 4.1 38.921 4.164L38.621 3.444ZM40.325 8.256C40.549 8.256 40.749 8.228 40.925 8.172C41.101 8.108 41.253 8.032 41.381 7.944C41.509 7.848 41.613 7.744 41.693 7.632C41.781 7.52 41.845 7.412 41.885 7.308V6.312C41.773 6.304 41.657 6.3 41.537 6.3C41.425 6.292 41.313 6.288 41.201 6.288C40.953 6.288 40.709 6.304 40.469 6.336C40.237 6.36 40.029 6.412 39.845 6.492C39.669 6.564 39.525 6.668 39.413 6.804C39.309 6.932 39.257 7.096 39.257 7.296C39.257 7.576 39.357 7.808 39.557 7.992C39.757 8.168 40.013 8.256 40.325 8.256ZM48.3421 6.348H45.6301V9H44.6701V3H45.6301V5.508H48.3421V3H49.3021V9H48.3421V6.348ZM54.8946 5.448L54.9306 4.704H54.8946L54.4026 5.472L51.7026 9H51.1506V3H52.1106V6.66L52.0746 7.368H52.1226L52.5906 6.624L55.2906 3H55.8546V9H54.8946V5.448ZM62.0813 8.52C61.8413 8.712 61.5373 8.864 61.1693 8.976C60.8093 9.088 60.4253 9.144 60.0173 9.144C59.5613 9.144 59.1653 9.072 58.8293 8.928C58.4933 8.776 58.2173 8.564 58.0013 8.292C57.7853 8.012 57.6253 7.68 57.5213 7.296C57.4173 6.912 57.3653 6.48 57.3653 6C57.3653 4.976 57.5933 4.196 58.0493 3.66C58.5053 3.124 59.1573 2.856 60.0053 2.856C60.2773 2.856 60.5493 2.888 60.8213 2.952C61.0933 3.008 61.3373 3.12 61.5533 3.288C61.7693 3.456 61.9453 3.696 62.0813 4.008C62.2173 4.312 62.2853 4.716 62.2853 5.22C62.2853 5.484 62.2613 5.776 62.2133 6.096H58.3613C58.3613 6.448 58.3973 6.76 58.4693 7.032C58.5413 7.304 58.6533 7.536 58.8053 7.728C58.9573 7.912 59.1533 8.056 59.3933 8.16C59.6413 8.256 59.9413 8.304 60.2933 8.304C60.5653 8.304 60.8373 8.256 61.1093 8.16C61.3813 8.064 61.5853 7.952 61.7213 7.824L62.0813 8.52ZM60.0173 3.696C59.5453 3.696 59.1653 3.82 58.8773 4.068C58.5973 4.316 58.4293 4.74 58.3733 5.34H61.3493C61.3493 4.732 61.2333 4.308 61.0013 4.068C60.7693 3.82 60.4413 3.696 60.0173 3.696ZM66.6583 6C66.6583 4.984 66.8823 4.208 67.3303 3.672C67.7863 3.128 68.4383 2.856 69.2863 2.856C69.7343 2.856 70.1223 2.932 70.4503 3.084C70.7863 3.228 71.0623 3.44 71.2783 3.72C71.4943 3.992 71.6543 4.324 71.7583 4.716C71.8623 5.1 71.9143 5.528 71.9143 6C71.9143 7.016 71.6863 7.796 71.2303 8.34C70.7823 8.876 70.1343 9.144 69.2863 9.144C68.8383 9.144 68.4463 9.072 68.1103 8.928C67.7823 8.776 67.5103 8.564 67.2943 8.292C67.0783 8.012 66.9183 7.68 66.8143 7.296C66.7103 6.904 66.6583 6.472 66.6583 6ZM67.6543 6C67.6543 6.304 67.6823 6.596 67.7383 6.876C67.8023 7.156 67.8983 7.4 68.0263 7.608C68.1543 7.816 68.3223 7.984 68.5303 8.112C68.7383 8.24 68.9903 8.304 69.2863 8.304C70.3743 8.312 70.9183 7.544 70.9183 6C70.9183 5.688 70.8863 5.392 70.8223 5.112C70.7663 4.832 70.6743 4.588 70.5463 4.38C70.4183 4.172 70.2503 4.008 70.0423 3.888C69.8343 3.76 69.5823 3.696 69.2863 3.696C68.1983 3.688 67.6543 4.456 67.6543 6ZM73.4279 3H74.0879L74.2679 3.72H74.3159C74.4999 3.44 74.7359 3.228 75.0239 3.084C75.3199 2.932 75.6559 2.856 76.0319 2.856C76.8319 2.856 77.4279 3.092 77.8199 3.564C78.2119 4.036 78.4079 4.808 78.4079 5.88C78.4079 6.384 78.3399 6.84 78.2039 7.248C78.0759 7.648 77.8919 7.988 77.6519 8.268C77.4119 8.548 77.1199 8.764 76.7759 8.916C76.4399 9.068 76.0639 9.144 75.6479 9.144C75.3519 9.144 75.1159 9.124 74.9399 9.084C74.7719 9.052 74.5879 8.992 74.3879 8.904V11.4H73.4279V3ZM75.8519 3.696C75.4439 3.696 75.1199 3.804 74.8799 4.02C74.6479 4.228 74.4839 4.548 74.3879 4.98V7.956C74.5319 8.068 74.6959 8.156 74.8799 8.22C75.0639 8.276 75.3079 8.304 75.6119 8.304C76.1639 8.304 76.5999 8.1 76.9199 7.692C77.2479 7.276 77.4119 6.668 77.4119 5.868C77.4119 5.54 77.3839 5.244 77.3279 4.98C77.2719 4.708 77.1799 4.48 77.0519 4.296C76.9319 4.104 76.7719 3.956 76.5719 3.852C76.3799 3.748 76.1399 3.696 75.8519 3.696ZM83.4241 3.84H80.8801V9H79.9201V3H83.4241V3.84ZM84.2538 3.444C84.5578 3.26 84.9098 3.124 85.3098 3.036C85.7178 2.948 86.1418 2.904 86.5818 2.904C86.9978 2.904 87.3298 2.96 87.5778 3.072C87.8338 3.184 88.0258 3.332 88.1538 3.516C88.2898 3.692 88.3778 3.888 88.4178 4.104C88.4658 4.32 88.4898 4.536 88.4898 4.752C88.4898 5.232 88.4778 5.7 88.4538 6.156C88.4298 6.612 88.4178 7.044 88.4178 7.452C88.4178 7.748 88.4298 8.028 88.4538 8.292C88.4778 8.556 88.5218 8.8 88.5858 9.024H87.8778L87.6258 8.184H87.5658C87.4938 8.296 87.4018 8.408 87.2898 8.52C87.1858 8.624 87.0578 8.72 86.9058 8.808C86.7538 8.888 86.5778 8.956 86.3778 9.012C86.1778 9.068 85.9498 9.096 85.6938 9.096C85.4378 9.096 85.1978 9.056 84.9738 8.976C84.7578 8.896 84.5698 8.784 84.4098 8.64C84.2498 8.488 84.1218 8.308 84.0258 8.1C83.9378 7.892 83.8938 7.656 83.8938 7.392C83.8938 7.04 83.9658 6.748 84.1098 6.516C84.2538 6.276 84.4538 6.088 84.7098 5.952C84.9738 5.808 85.2858 5.708 85.6458 5.652C86.0138 5.588 86.4178 5.556 86.8578 5.556C86.9698 5.556 87.0778 5.556 87.1818 5.556C87.2938 5.556 87.4058 5.564 87.5178 5.58C87.5418 5.34 87.5538 5.124 87.5538 4.932C87.5538 4.492 87.4658 4.184 87.2898 4.008C87.1138 3.832 86.7938 3.744 86.3298 3.744C86.1938 3.744 86.0458 3.756 85.8858 3.78C85.7338 3.796 85.5738 3.824 85.4058 3.864C85.2458 3.896 85.0898 3.94 84.9378 3.996C84.7938 4.044 84.6658 4.1 84.5538 4.164L84.2538 3.444ZM85.9578 8.256C86.1818 8.256 86.3818 8.228 86.5578 8.172C86.7338 8.108 86.8858 8.032 87.0138 7.944C87.1418 7.848 87.2458 7.744 87.3258 7.632C87.4138 7.52 87.4778 7.412 87.5178 7.308V6.312C87.4058 6.304 87.2898 6.3 87.1698 6.3C87.0578 6.292 86.9458 6.288 86.8338 6.288C86.5858 6.288 86.3418 6.304 86.1018 6.336C85.8698 6.36 85.6618 6.412 85.4778 6.492C85.3018 6.564 85.1578 6.668 85.0458 6.804C84.9418 6.932 84.8898 7.096 84.8898 7.296C84.8898 7.576 84.9898 7.808 85.1898 7.992C85.3898 8.168 85.6458 8.256 85.9578 8.256ZM93.9749 6.348H91.2629V9H90.3029V3H91.2629V5.508H93.9749V3H94.9349V9H93.9749V6.348ZM100.527 5.448L100.563 4.704H100.527L100.035 5.472L97.3354 9H96.7834V3H97.7434V6.66L97.7074 7.368H97.7554L98.2234 6.624L100.923 3H101.487V9H100.527V5.448ZM103.91 6.324V5.544H104.75C104.894 5.544 105.034 5.52 105.17 5.472C105.314 5.424 105.442 5.36 105.554 5.28C105.666 5.192 105.754 5.092 105.818 4.98C105.89 4.86 105.926 4.736 105.926 4.608C105.926 4.296 105.818 4.076 105.602 3.948C105.386 3.82 105.062 3.756 104.63 3.756C104.318 3.756 104.03 3.804 103.766 3.9C103.51 3.996 103.31 4.088 103.166 4.176L102.89 3.432C103.13 3.296 103.41 3.176 103.73 3.072C104.058 2.968 104.446 2.916 104.894 2.916C106.222 2.916 106.886 3.408 106.886 4.392C106.886 4.672 106.794 4.948 106.61 5.22C106.434 5.484 106.178 5.672 105.842 5.784V5.832C106.314 5.92 106.642 6.088 106.826 6.336C107.018 6.584 107.114 6.912 107.114 7.32C107.114 7.576 107.062 7.812 106.958 8.028C106.854 8.244 106.698 8.432 106.49 8.592C106.282 8.752 106.018 8.88 105.698 8.976C105.386 9.064 105.022 9.108 104.606 9.108C104.198 9.108 103.858 9.072 103.586 9C103.322 8.928 103.082 8.84 102.866 8.736L103.142 7.944C103.326 8.048 103.546 8.128 103.802 8.184C104.066 8.24 104.35 8.268 104.654 8.268C105.142 8.268 105.514 8.184 105.77 8.016C106.026 7.848 106.154 7.592 106.154 7.248C106.154 6.96 106.034 6.736 105.794 6.576C105.554 6.408 105.158 6.324 104.606 6.324H103.91ZM108.535 3.444C108.839 3.26 109.191 3.124 109.591 3.036C109.999 2.948 110.423 2.904 110.863 2.904C111.279 2.904 111.611 2.96 111.859 3.072C112.115 3.184 112.307 3.332 112.435 3.516C112.571 3.692 112.659 3.888 112.699 4.104C112.747 4.32 112.771 4.536 112.771 4.752C112.771 5.232 112.759 5.7 112.735 6.156C112.711 6.612 112.699 7.044 112.699 7.452C112.699 7.748 112.711 8.028 112.735 8.292C112.759 8.556 112.803 8.8 112.867 9.024H112.159L111.907 8.184H111.847C111.775 8.296 111.683 8.408 111.571 8.52C111.467 8.624 111.339 8.72 111.187 8.808C111.035 8.888 110.859 8.956 110.659 9.012C110.459 9.068 110.231 9.096 109.975 9.096C109.719 9.096 109.479 9.056 109.255 8.976C109.039 8.896 108.851 8.784 108.691 8.64C108.531 8.488 108.403 8.308 108.307 8.1C108.219 7.892 108.175 7.656 108.175 7.392C108.175 7.04 108.247 6.748 108.391 6.516C108.535 6.276 108.735 6.088 108.991 5.952C109.255 5.808 109.567 5.708 109.927 5.652C110.295 5.588 110.699 5.556 111.139 5.556C111.251 5.556 111.359 5.556 111.463 5.556C111.575 5.556 111.687 5.564 111.799 5.58C111.823 5.34 111.835 5.124 111.835 4.932C111.835 4.492 111.747 4.184 111.571 4.008C111.395 3.832 111.075 3.744 110.611 3.744C110.475 3.744 110.327 3.756 110.167 3.78C110.015 3.796 109.855 3.824 109.687 3.864C109.527 3.896 109.371 3.94 109.219 3.996C109.075 4.044 108.947 4.1 108.835 4.164L108.535 3.444ZM110.239 8.256C110.463 8.256 110.663 8.228 110.839 8.172C111.015 8.108 111.167 8.032 111.295 7.944C111.423 7.848 111.527 7.744 111.607 7.632C111.695 7.52 111.759 7.412 111.799 7.308V6.312C111.687 6.304 111.571 6.3 111.451 6.3C111.339 6.292 111.227 6.288 111.115 6.288C110.867 6.288 110.623 6.304 110.383 6.336C110.151 6.36 109.943 6.412 109.759 6.492C109.583 6.564 109.439 6.668 109.327 6.804C109.223 6.932 109.171 7.096 109.171 7.296C109.171 7.576 109.271 7.808 109.471 7.992C109.671 8.168 109.927 8.256 110.239 8.256ZM119.972 10.524H119.324L119.144 9H114.584V3H115.544V8.16H118.148V3H119.108V8.16H119.972V10.524ZM124.902 5.448L124.938 4.704H124.902L124.41 5.472L121.71 9H121.158V3H122.118V6.66L122.082 7.368H122.13L122.598 6.624L125.298 3H125.862V9H124.902V5.448ZM131.453 5.448L131.489 4.704H131.453L130.961 5.472L128.261 9H127.709V3H128.669V6.66L128.633 7.368H128.681L129.149 6.624L131.849 3H132.413V9H131.453V5.448Z" fill="#6A6E72"/>
</svg>
