<svg width="128" height="14" viewBox="0 0 128 14" fill="none" xmlns="http://www.w3.org/2000/svg">
<path d="M3.16867 10.048V7.408L0.864672 8.728L0.000671908 7.216L2.28067 5.896L0.000671908 4.576L0.864672 3.064L3.16867 4.384V1.744H4.92067V4.384L7.20067 3.064L8.06467 4.576L5.78467 5.896L8.06467 7.216L7.20067 8.728L4.92067 7.408V10.048H3.16867Z" fill="#D90000"/>
<path d="M17.8449 1.908H15.7589C15.7215 2.79467 15.6795 3.602 15.6329 4.33C15.5862 5.058 15.5209 5.716 15.4369 6.304C15.3622 6.88267 15.2595 7.396 15.1289 7.844C14.9982 8.292 14.8302 8.67933 14.6249 9.006C14.4942 9.22067 14.3449 9.398 14.1769 9.538C14.0182 9.678 13.8502 9.79 13.6729 9.874C13.4955 9.958 13.3182 10.014 13.1409 10.042C12.9729 10.0793 12.8142 10.098 12.6649 10.098C12.4502 10.098 12.2682 10.0793 12.1189 10.042C11.9789 10.014 11.8389 9.96733 11.6989 9.902L11.9089 8.25C11.9649 8.26867 12.0209 8.28267 12.0769 8.292C12.1329 8.30133 12.1889 8.306 12.2449 8.306C12.3942 8.306 12.5389 8.26867 12.6789 8.194C12.8282 8.11933 12.9542 7.99333 13.0569 7.816C13.1969 7.61067 13.3182 7.312 13.4209 6.92C13.5235 6.51867 13.6122 6.01 13.6869 5.394C13.7709 4.778 13.8362 4.04533 13.8829 3.196C13.9295 2.33733 13.9622 1.33867 13.9809 0.199999H19.7629V10H17.8449V1.908ZM21.0655 6.5C21.0655 5.31467 21.3548 4.40467 21.9335 3.77C22.5122 3.126 23.3242 2.804 24.3695 2.804C24.9295 2.804 25.4148 2.89267 25.8255 3.07C26.2362 3.24733 26.5768 3.49933 26.8475 3.826C27.1182 4.14333 27.3188 4.53067 27.4495 4.988C27.5895 5.44533 27.6595 5.94933 27.6595 6.5C27.6595 7.68533 27.3702 8.6 26.7915 9.244C26.2222 9.87867 25.4148 10.196 24.3695 10.196C23.8095 10.196 23.3242 10.1073 22.9135 9.93C22.5028 9.75267 22.1575 9.50533 21.8775 9.188C21.6068 8.86133 21.4015 8.46933 21.2615 8.012C21.1308 7.55467 21.0655 7.05067 21.0655 6.5ZM22.9415 6.5C22.9415 6.808 22.9695 7.09267 23.0255 7.354C23.0815 7.61533 23.1655 7.844 23.2775 8.04C23.3895 8.236 23.5342 8.39 23.7115 8.502C23.8982 8.60467 24.1175 8.656 24.3695 8.656C24.8455 8.656 25.2002 8.48333 25.4335 8.138C25.6668 7.79267 25.7835 7.24667 25.7835 6.5C25.7835 5.856 25.6762 5.338 25.4615 4.946C25.2468 4.54467 24.8828 4.344 24.3695 4.344C23.9215 4.344 23.5715 4.512 23.3195 4.848C23.0675 5.184 22.9415 5.73467 22.9415 6.5ZM33.443 4.61H30.797V10H28.921V3H33.443V4.61ZM33.7393 6.5C33.7393 5.31467 34.0287 4.40467 34.6073 3.77C35.186 3.126 35.998 2.804 37.0433 2.804C37.6033 2.804 38.0887 2.89267 38.4993 3.07C38.91 3.24733 39.2507 3.49933 39.5213 3.826C39.792 4.14333 39.9927 4.53067 40.1233 4.988C40.2633 5.44533 40.3333 5.94933 40.3333 6.5C40.3333 7.68533 40.044 8.6 39.4653 9.244C38.896 9.87867 38.0887 10.196 37.0433 10.196C36.4833 10.196 35.998 10.1073 35.5873 9.93C35.1767 9.75267 34.8313 9.50533 34.5513 9.188C34.2807 8.86133 34.0753 8.46933 33.9353 8.012C33.8047 7.55467 33.7393 7.05067 33.7393 6.5ZM35.6153 6.5C35.6153 6.808 35.6433 7.09267 35.6993 7.354C35.7553 7.61533 35.8393 7.844 35.9513 8.04C36.0633 8.236 36.208 8.39 36.3853 8.502C36.572 8.60467 36.7913 8.656 37.0433 8.656C37.5193 8.656 37.874 8.48333 38.1073 8.138C38.3407 7.79267 38.4573 7.24667 38.4573 6.5C38.4573 5.856 38.35 5.338 38.1353 4.946C37.9207 4.54467 37.5567 4.344 37.0433 4.344C36.5953 4.344 36.2453 4.512 35.9933 4.848C35.7413 5.184 35.6153 5.73467 35.6153 6.5ZM46.5255 4.61H44.5795V10H42.7035V4.61H40.7015V3H46.5255V4.61ZM51.5511 6.808L51.6211 5.814H51.5791L50.9771 6.836L48.4851 10H47.3371V3H49.1571V6.332L49.0731 7.284H49.1291L49.7031 6.29L52.2231 3H53.3711V10H51.5511V6.808ZM58.998 4.61H56.786V10H54.966V3H60.818V10H58.998V4.61ZM68.3382 13.08C67.9088 12.632 67.5448 12.1373 67.2462 11.596C66.9475 11.064 66.7048 10.518 66.5182 9.958C66.3408 9.38867 66.2102 8.81933 66.1262 8.25C66.0422 7.67133 66.0002 7.12067 66.0002 6.598C66.0002 6.08467 66.0422 5.54333 66.1262 4.974C66.2102 4.40467 66.3455 3.83533 66.5322 3.266C66.7188 2.68733 66.9615 2.12267 67.2602 1.572C67.5682 1.02133 67.9415 0.508 68.3802 0.0319998L69.5562 0.787999C69.2295 1.22667 68.9542 1.684 68.7302 2.16C68.5155 2.636 68.3382 3.126 68.1982 3.63C68.0675 4.12467 67.9695 4.624 67.9042 5.128C67.8482 5.632 67.8202 6.122 67.8202 6.598C67.8202 7.046 67.8528 7.522 67.9182 8.026C67.9835 8.53 68.0862 9.034 68.2262 9.538C68.3662 10.0327 68.5482 10.518 68.7722 10.994C68.9962 11.47 69.2668 11.904 69.5842 12.296L68.3382 13.08ZM70.7062 3H72.5262V10.294C72.5262 11.1433 72.3582 11.792 72.0222 12.24C71.6862 12.688 71.1496 12.912 70.4122 12.912C70.1322 12.912 69.8336 12.8793 69.5162 12.814V11.288C69.5536 11.288 69.5862 11.288 69.6142 11.288C69.6422 11.2973 69.6702 11.302 69.6982 11.302C70.1182 11.302 70.3889 11.1667 70.5102 10.896C70.6409 10.6253 70.7062 10.252 70.7062 9.776V3ZM70.4682 1.026C70.4682 0.755333 70.5662 0.526666 70.7622 0.339999C70.9676 0.143999 71.2476 0.0459996 71.6022 0.0459996C71.9569 0.0459996 72.2416 0.143999 72.4562 0.339999C72.6802 0.526666 72.7922 0.755333 72.7922 1.026C72.7922 1.29667 72.6802 1.52533 72.4562 1.712C72.2416 1.88933 71.9569 1.978 71.6022 1.978C71.2476 1.978 70.9676 1.88933 70.7622 1.712C70.5662 1.52533 70.4682 1.29667 70.4682 1.026ZM74.2843 3H75.6143L75.8243 3.84H75.8803C76.123 3.48533 76.4077 3.224 76.7343 3.056C77.0703 2.888 77.4763 2.804 77.9523 2.804C78.8297 2.804 79.4877 3.084 79.9263 3.644C80.365 4.19467 80.5843 5.086 80.5843 6.318C80.5843 6.91533 80.5143 7.45667 80.3743 7.942C80.2343 8.418 80.0243 8.824 79.7443 9.16C79.4737 9.496 79.1377 9.75267 78.7363 9.93C78.3443 10.1073 77.8917 10.196 77.3783 10.196C77.089 10.196 76.851 10.1727 76.6643 10.126C76.4777 10.0887 76.291 10.0233 76.1043 9.93V12.8H74.2843V3ZM77.4063 4.344C77.0517 4.344 76.7717 4.43267 76.5663 4.61C76.3703 4.78733 76.2163 5.05333 76.1043 5.408V8.32C76.235 8.42267 76.375 8.50667 76.5243 8.572C76.683 8.628 76.8883 8.656 77.1403 8.656C77.663 8.656 78.055 8.474 78.3163 8.11C78.5777 7.73667 78.7083 7.12533 78.7083 6.276C78.7083 5.66 78.6057 5.184 78.4003 4.848C78.195 4.512 77.8637 4.344 77.4063 4.344ZM87.4449 9.398C87.1649 9.622 86.7822 9.81333 86.2969 9.972C85.8209 10.1213 85.3122 10.196 84.7709 10.196C83.6415 10.196 82.8155 9.86933 82.2929 9.216C81.7702 8.55333 81.5089 7.648 81.5089 6.5C81.5089 5.268 81.8029 4.344 82.3909 3.728C82.9789 3.112 83.8049 2.804 84.8689 2.804C85.2235 2.804 85.5689 2.85067 85.9049 2.944C86.2409 3.03733 86.5395 3.19133 86.8009 3.406C87.0622 3.62067 87.2722 3.91 87.4309 4.274C87.5895 4.638 87.6689 5.09067 87.6689 5.632C87.6689 5.828 87.6549 6.038 87.6269 6.262C87.6082 6.486 87.5755 6.71933 87.5289 6.962H83.3289C83.3569 7.55 83.5062 7.99333 83.7769 8.292C84.0569 8.59067 84.5049 8.74 85.1209 8.74C85.5035 8.74 85.8442 8.684 86.1429 8.572C86.4509 8.45067 86.6842 8.32933 86.8429 8.208L87.4449 9.398ZM84.8409 4.26C84.3649 4.26 84.0102 4.40467 83.7769 4.694C83.5529 4.974 83.4175 5.352 83.3709 5.828H85.9749C86.0122 5.324 85.9329 4.93667 85.7369 4.666C85.5502 4.39533 85.2515 4.26 84.8409 4.26ZM94.8079 10C94.8079 11.0173 94.5326 11.764 93.9819 12.24C93.4312 12.7253 92.6612 12.968 91.6719 12.968C90.9999 12.968 90.4679 12.9213 90.0759 12.828C89.6932 12.7347 89.4039 12.6367 89.2079 12.534L89.5859 11.092C89.8006 11.176 90.0479 11.26 90.3279 11.344C90.6172 11.428 90.9719 11.47 91.3919 11.47C92.0266 11.47 92.4559 11.33 92.6799 11.05C92.9132 10.7793 93.0299 10.3967 93.0299 9.902V9.454H92.9739C92.6472 9.89267 92.0686 10.112 91.2379 10.112C90.3326 10.112 89.6559 9.832 89.2079 9.272C88.7692 8.712 88.5499 7.83467 88.5499 6.64C88.5499 5.38933 88.8486 4.442 89.4459 3.798C90.0432 3.154 90.9112 2.832 92.0499 2.832C92.6472 2.832 93.1792 2.874 93.6459 2.958C94.1219 3.042 94.5092 3.14 94.8079 3.252V10ZM91.7279 8.656C92.0826 8.656 92.3532 8.57667 92.5399 8.418C92.7359 8.25933 92.8852 8.02133 92.9879 7.704V4.554C92.6986 4.43267 92.3392 4.372 91.9099 4.372C91.4432 4.372 91.0792 4.54933 90.8179 4.904C90.5566 5.24933 90.4259 5.80467 90.4259 6.57C90.4259 7.25133 90.5379 7.76933 90.7619 8.124C90.9859 8.47867 91.3079 8.656 91.7279 8.656ZM96.1818 9.104C96.1818 8.78667 96.2844 8.53467 96.4898 8.348C96.7044 8.16133 96.9658 8.068 97.2738 8.068C97.6658 8.068 97.9738 8.19867 98.1978 8.46C98.4218 8.72133 98.5338 9.06667 98.5338 9.496C98.5338 9.916 98.4684 10.2753 98.3378 10.574C98.2071 10.882 98.0438 11.134 97.8478 11.33C97.6611 11.5353 97.4558 11.694 97.2318 11.806C97.0171 11.9273 96.8211 12.016 96.6438 12.072L96.1118 11.316C96.3638 11.2133 96.5831 11.0453 96.7698 10.812C96.9564 10.5787 97.0591 10.3313 97.0778 10.07C96.8631 10.098 96.6578 10.0327 96.4618 9.874C96.2751 9.71533 96.1818 9.45867 96.1818 9.104ZM102.148 3H103.478L103.688 3.84H103.744C103.986 3.48533 104.271 3.224 104.598 3.056C104.934 2.888 105.34 2.804 105.816 2.804C106.693 2.804 107.351 3.084 107.79 3.644C108.228 4.19467 108.448 5.086 108.448 6.318C108.448 6.91533 108.378 7.45667 108.238 7.942C108.098 8.418 107.888 8.824 107.608 9.16C107.337 9.496 107.001 9.75267 106.6 9.93C106.208 10.1073 105.755 10.196 105.242 10.196C104.952 10.196 104.714 10.1727 104.528 10.126C104.341 10.0887 104.154 10.0233 103.968 9.93V12.8H102.148V3ZM105.27 4.344C104.915 4.344 104.635 4.43267 104.43 4.61C104.234 4.78733 104.08 5.05333 103.968 5.408V8.32C104.098 8.42267 104.238 8.50667 104.388 8.572C104.546 8.628 104.752 8.656 105.004 8.656C105.526 8.656 105.918 8.474 106.18 8.11C106.441 7.73667 106.572 7.12533 106.572 6.276C106.572 5.66 106.469 5.184 106.264 4.848C106.058 4.512 105.727 4.344 105.27 4.344ZM113.992 10V6.024C113.992 5.45467 113.908 5.044 113.74 4.792C113.581 4.54 113.306 4.414 112.914 4.414C112.569 4.414 112.275 4.51667 112.032 4.722C111.799 4.918 111.631 5.16533 111.528 5.464V10H109.708V3H111.15L111.36 3.924H111.416C111.631 3.62533 111.915 3.364 112.27 3.14C112.625 2.916 113.082 2.804 113.642 2.804C113.987 2.804 114.295 2.85067 114.566 2.944C114.837 3.03733 115.065 3.19133 115.252 3.406C115.439 3.62067 115.579 3.91467 115.672 4.288C115.765 4.652 115.812 5.10467 115.812 5.646V10H113.992ZM123.259 10C123.259 11.0173 122.984 11.764 122.433 12.24C121.882 12.7253 121.112 12.968 120.123 12.968C119.451 12.968 118.919 12.9213 118.527 12.828C118.144 12.7347 117.855 12.6367 117.659 12.534L118.037 11.092C118.252 11.176 118.499 11.26 118.779 11.344C119.068 11.428 119.423 11.47 119.843 11.47C120.478 11.47 120.907 11.33 121.131 11.05C121.364 10.7793 121.481 10.3967 121.481 9.902V9.454H121.425C121.098 9.89267 120.52 10.112 119.689 10.112C118.784 10.112 118.107 9.832 117.659 9.272C117.22 8.712 117.001 7.83467 117.001 6.64C117.001 5.38933 117.3 4.442 117.897 3.798C118.494 3.154 119.362 2.832 120.501 2.832C121.098 2.832 121.63 2.874 122.097 2.958C122.573 3.042 122.96 3.14 123.259 3.252V10ZM120.179 8.656C120.534 8.656 120.804 8.57667 120.991 8.418C121.187 8.25933 121.336 8.02133 121.439 7.704V4.554C121.15 4.43267 120.79 4.372 120.361 4.372C119.894 4.372 119.53 4.54933 119.269 4.904C119.008 5.24933 118.877 5.80467 118.877 6.57C118.877 7.25133 118.989 7.76933 119.213 8.124C119.437 8.47867 119.759 8.656 120.179 8.656ZM125.431 0.0319998C125.86 0.48 126.224 0.974666 126.523 1.516C126.822 2.048 127.06 2.59867 127.237 3.168C127.424 3.728 127.559 4.29733 127.643 4.876C127.727 5.44533 127.769 5.99133 127.769 6.514C127.769 7.02733 127.727 7.56867 127.643 8.138C127.559 8.70733 127.424 9.28133 127.237 9.86C127.05 10.4293 126.803 10.9893 126.495 11.54C126.196 12.0907 125.828 12.604 125.389 13.08L124.213 12.31C124.558 11.8433 124.843 11.3673 125.067 10.882C125.291 10.406 125.468 9.92533 125.599 9.44C125.73 8.94533 125.818 8.45533 125.865 7.97C125.921 7.47533 125.949 6.99 125.949 6.514C125.949 6.066 125.912 5.59467 125.837 5.1C125.772 4.596 125.669 4.09667 125.529 3.602C125.389 3.098 125.207 2.61267 124.983 2.146C124.768 1.67 124.507 1.23133 124.199 0.83L125.431 0.0319998Z" fill="#6A6E72"/>
</svg>
