<svg width="46" height="10" viewBox="0 0 46 10" fill="none" xmlns="http://www.w3.org/2000/svg">
<path d="M3.78 9.048V6.408L1.476 7.728L0.612 6.216L2.892 4.896L0.612 3.576L1.476 2.064L3.78 3.384V0.744H5.532V3.384L7.812 2.064L8.676 3.576L6.396 4.896L8.676 6.216L7.812 7.728L5.532 6.408V9.048H3.78Z" fill="#D90000"/>
<path d="M13.5122 0.599999H18.0842V1.488H14.5082V4.236H17.7842V5.124H14.5082V8.112H18.1442V9H13.5122V0.599999ZM19.6338 5.1H22.5378V5.988H19.6338V5.1ZM27.69 9V5.604C27.69 5.284 27.674 5.008 27.642 4.776C27.618 4.536 27.566 4.336 27.486 4.176C27.406 4.016 27.29 3.896 27.138 3.816C26.994 3.736 26.802 3.696 26.562 3.696C26.194 3.696 25.886 3.808 25.638 4.032C25.398 4.256 25.23 4.536 25.134 4.872V9H24.174V3H24.846L25.026 3.732H25.074C25.29 3.476 25.538 3.268 25.818 3.108C26.106 2.94 26.478 2.856 26.934 2.856C27.318 2.856 27.63 2.932 27.87 3.084C28.118 3.228 28.31 3.484 28.446 3.852C28.63 3.54 28.882 3.296 29.202 3.12C29.53 2.944 29.898 2.856 30.306 2.856C30.642 2.856 30.926 2.896 31.158 2.976C31.39 3.048 31.582 3.18 31.734 3.372C31.886 3.564 31.994 3.824 32.058 4.152C32.13 4.48 32.166 4.896 32.166 5.4V9H31.206V5.388C31.206 5.1 31.19 4.852 31.158 4.644C31.134 4.428 31.078 4.252 30.99 4.116C30.91 3.972 30.794 3.868 30.642 3.804C30.498 3.732 30.306 3.696 30.066 3.696C29.666 3.696 29.354 3.808 29.13 4.032C28.906 4.256 28.746 4.576 28.65 4.992V9H27.69ZM33.8163 3.444C34.1203 3.26 34.4723 3.124 34.8723 3.036C35.2803 2.948 35.7043 2.904 36.1443 2.904C36.5603 2.904 36.8923 2.96 37.1403 3.072C37.3963 3.184 37.5883 3.332 37.7163 3.516C37.8523 3.692 37.9403 3.888 37.9803 4.104C38.0283 4.32 38.0523 4.536 38.0523 4.752C38.0523 5.232 38.0403 5.7 38.0163 6.156C37.9923 6.612 37.9803 7.044 37.9803 7.452C37.9803 7.748 37.9923 8.028 38.0163 8.292C38.0403 8.556 38.0843 8.8 38.1483 9.024H37.4403L37.1883 8.184H37.1283C37.0563 8.296 36.9643 8.408 36.8523 8.52C36.7483 8.624 36.6203 8.72 36.4683 8.808C36.3163 8.888 36.1403 8.956 35.9403 9.012C35.7403 9.068 35.5123 9.096 35.2563 9.096C35.0003 9.096 34.7603 9.056 34.5363 8.976C34.3203 8.896 34.1323 8.784 33.9723 8.64C33.8123 8.488 33.6843 8.308 33.5883 8.1C33.5003 7.892 33.4563 7.656 33.4563 7.392C33.4563 7.04 33.5283 6.748 33.6723 6.516C33.8163 6.276 34.0163 6.088 34.2723 5.952C34.5363 5.808 34.8483 5.708 35.2083 5.652C35.5763 5.588 35.9803 5.556 36.4203 5.556C36.5323 5.556 36.6403 5.556 36.7443 5.556C36.8563 5.556 36.9683 5.564 37.0803 5.58C37.1043 5.34 37.1163 5.124 37.1163 4.932C37.1163 4.492 37.0283 4.184 36.8523 4.008C36.6763 3.832 36.3563 3.744 35.8923 3.744C35.7563 3.744 35.6083 3.756 35.4483 3.78C35.2963 3.796 35.1363 3.824 34.9683 3.864C34.8083 3.896 34.6523 3.94 34.5003 3.996C34.3563 4.044 34.2283 4.1 34.1163 4.164L33.8163 3.444ZM35.5203 8.256C35.7443 8.256 35.9443 8.228 36.1203 8.172C36.2963 8.108 36.4483 8.032 36.5763 7.944C36.7043 7.848 36.8083 7.744 36.8883 7.632C36.9763 7.52 37.0403 7.412 37.0803 7.308V6.312C36.9683 6.304 36.8523 6.3 36.7323 6.3C36.6203 6.292 36.5083 6.288 36.3963 6.288C36.1483 6.288 35.9043 6.304 35.6643 6.336C35.4323 6.36 35.2243 6.412 35.0403 6.492C34.8643 6.564 34.7203 6.668 34.6083 6.804C34.5043 6.932 34.4523 7.096 34.4523 7.296C34.4523 7.576 34.5523 7.808 34.7523 7.992C34.9523 8.168 35.2083 8.256 35.5203 8.256ZM40.0694 3H41.0294V9H40.0694V3ZM39.8654 1.176C39.8654 0.992 39.9254 0.836 40.0454 0.707999C40.1734 0.572 40.3334 0.504 40.5254 0.504C40.7174 0.504 40.8814 0.572 41.0174 0.707999C41.1534 0.836 41.2214 0.992 41.2214 1.176C41.2214 1.36 41.1534 1.512 41.0174 1.632C40.8814 1.752 40.7174 1.812 40.5254 1.812C40.3334 1.812 40.1734 1.752 40.0454 1.632C39.9254 1.512 39.8654 1.36 39.8654 1.176ZM44.1443 7.524C44.1443 7.804 44.1923 8.004 44.2883 8.124C44.3843 8.244 44.5203 8.304 44.6963 8.304C44.8003 8.304 44.9123 8.296 45.0323 8.28C45.1523 8.264 45.2883 8.228 45.4403 8.172L45.5483 8.928C45.4203 8.992 45.2403 9.044 45.0083 9.084C44.7843 9.124 44.5883 9.144 44.4203 9.144C44.0603 9.144 43.7643 9.044 43.5323 8.844C43.3003 8.636 43.1843 8.288 43.1843 7.8V0.599999H44.1443V7.524Z" fill="#6A6E72"/>
</svg>
