<svg width="56" height="12" viewBox="0 0 56 12" fill="none" xmlns="http://www.w3.org/2000/svg">
<path d="M3.78 9.048V6.408L1.476 7.728L0.612 6.216L2.892 4.896L0.612 3.576L1.476 2.064L3.78 3.384V0.744H5.532V3.384L7.812 2.064L8.676 3.576L6.396 4.896L8.676 6.216L7.812 7.728L5.532 6.408V9.048H3.78Z" fill="#D90000"/>
<path d="M18.5612 1.488H15.9452V9H14.9492V1.488H12.3332V0.599999H18.5612V1.488ZM22.5423 8.52C22.3023 8.712 21.9983 8.864 21.6303 8.976C21.2703 9.088 20.8863 9.144 20.4783 9.144C20.0223 9.144 19.6263 9.072 19.2903 8.928C18.9543 8.776 18.6783 8.564 18.4623 8.292C18.2463 8.012 18.0863 7.68 17.9823 7.296C17.8783 6.912 17.8263 6.48 17.8263 6C17.8263 4.976 18.0543 4.196 18.5103 3.66C18.9663 3.124 19.6183 2.856 20.4663 2.856C20.7383 2.856 21.0103 2.888 21.2823 2.952C21.5543 3.008 21.7983 3.12 22.0143 3.288C22.2303 3.456 22.4063 3.696 22.5423 4.008C22.6783 4.312 22.7463 4.716 22.7463 5.22C22.7463 5.484 22.7223 5.776 22.6743 6.096H18.8223C18.8223 6.448 18.8583 6.76 18.9303 7.032C19.0023 7.304 19.1143 7.536 19.2663 7.728C19.4183 7.912 19.6143 8.056 19.8543 8.16C20.1023 8.256 20.4023 8.304 20.7543 8.304C21.0263 8.304 21.2983 8.256 21.5703 8.16C21.8423 8.064 22.0463 7.952 22.1823 7.824L22.5423 8.52ZM20.4783 3.696C20.0063 3.696 19.6263 3.82 19.3383 4.068C19.0583 4.316 18.8903 4.74 18.8343 5.34H21.8103C21.8103 4.732 21.6943 4.308 21.4623 4.068C21.2303 3.82 20.9023 3.696 20.4783 3.696ZM27.2145 3.84H25.4745C25.4505 4.176 25.4265 4.54 25.4025 4.932C25.3785 5.316 25.3425 5.704 25.2945 6.096C25.2465 6.48 25.1825 6.852 25.1025 7.212C25.0225 7.564 24.9185 7.876 24.7905 8.148C24.6705 8.42 24.5185 8.64 24.3345 8.808C24.1585 8.968 23.9465 9.048 23.6985 9.048C23.5465 9.048 23.4145 9.04 23.3025 9.024C23.1905 9.008 23.0905 8.98 23.0025 8.94L23.1465 8.136C23.2425 8.168 23.3465 8.184 23.4585 8.184C23.6185 8.184 23.7625 8.116 23.8905 7.98C24.0185 7.844 24.1305 7.588 24.2265 7.212C24.3225 6.828 24.4025 6.3 24.4665 5.628C24.5305 4.956 24.5745 4.08 24.5985 3H28.1745V9H27.2145V3.84ZM34.4017 8.52C34.1617 8.712 33.8577 8.864 33.4897 8.976C33.1297 9.088 32.7457 9.144 32.3377 9.144C31.8817 9.144 31.4857 9.072 31.1497 8.928C30.8137 8.776 30.5377 8.564 30.3217 8.292C30.1057 8.012 29.9457 7.68 29.8417 7.296C29.7377 6.912 29.6857 6.48 29.6857 6C29.6857 4.976 29.9137 4.196 30.3697 3.66C30.8257 3.124 31.4777 2.856 32.3257 2.856C32.5977 2.856 32.8697 2.888 33.1417 2.952C33.4137 3.008 33.6577 3.12 33.8737 3.288C34.0897 3.456 34.2657 3.696 34.4017 4.008C34.5377 4.312 34.6057 4.716 34.6057 5.22C34.6057 5.484 34.5817 5.776 34.5337 6.096H30.6817C30.6817 6.448 30.7177 6.76 30.7897 7.032C30.8617 7.304 30.9737 7.536 31.1257 7.728C31.2777 7.912 31.4737 8.056 31.7137 8.16C31.9617 8.256 32.2617 8.304 32.6137 8.304C32.8857 8.304 33.1577 8.256 33.4297 8.16C33.7017 8.064 33.9057 7.952 34.0417 7.824L34.4017 8.52ZM32.3377 3.696C31.8657 3.696 31.4857 3.82 31.1977 4.068C30.9177 4.316 30.7497 4.74 30.6937 5.34H33.6697C33.6697 4.732 33.5537 4.308 33.3217 4.068C33.0897 3.82 32.7617 3.696 32.3377 3.696ZM38.6865 9.048C38.5505 9.096 38.4065 9.124 38.2545 9.132C38.1105 9.14 37.9785 9.144 37.8585 9.144C37.1305 9.144 36.5705 8.888 36.1785 8.376C35.7865 7.864 35.5905 7.072 35.5905 6C35.5905 4.976 35.8065 4.204 36.2385 3.684C36.6705 3.164 37.2945 2.904 38.1105 2.904C38.3345 2.904 38.5265 2.92 38.6865 2.952V0.599999H39.5985V2.964C39.7425 2.94 39.8705 2.924 39.9825 2.916C40.0945 2.908 40.2025 2.904 40.3065 2.904C41.0985 2.904 41.6945 3.136 42.0945 3.6C42.4945 4.056 42.6945 4.816 42.6945 5.88C42.6945 6.384 42.6385 6.84 42.5265 7.248C42.4225 7.648 42.2665 7.988 42.0585 8.268C41.8505 8.548 41.5945 8.764 41.2905 8.916C40.9945 9.068 40.6505 9.144 40.2585 9.144C40.1865 9.144 40.0785 9.136 39.9345 9.12C39.7985 9.112 39.6865 9.092 39.5985 9.06V11.4H38.6865V9.048ZM40.1265 3.696C40.0305 3.696 39.9425 3.7 39.8625 3.708C39.7905 3.708 39.6985 3.724 39.5865 3.756V8.316C39.6665 8.332 39.7545 8.344 39.8505 8.352C39.9545 8.352 40.0665 8.352 40.1865 8.352C40.6985 8.352 41.0825 8.14 41.3385 7.716C41.6025 7.292 41.7345 6.68 41.7345 5.88C41.7345 5.2 41.6145 4.668 41.3745 4.284C41.1425 3.892 40.7265 3.696 40.1265 3.696ZM38.0985 8.352C38.1945 8.352 38.2905 8.348 38.3865 8.34C38.4825 8.332 38.5865 8.316 38.6985 8.292V3.744C38.6025 3.728 38.5105 3.716 38.4225 3.708C38.3425 3.7 38.2425 3.696 38.1225 3.696C37.6265 3.696 37.2385 3.884 36.9585 4.26C36.6865 4.628 36.5505 5.208 36.5505 6C36.5505 6.336 36.5785 6.648 36.6345 6.936C36.6985 7.224 36.7945 7.476 36.9225 7.692C37.0505 7.9 37.2105 8.064 37.4025 8.184C37.6025 8.296 37.8345 8.352 38.0985 8.352ZM43.8068 6C43.8068 4.984 44.0308 4.208 44.4788 3.672C44.9348 3.128 45.5868 2.856 46.4348 2.856C46.8828 2.856 47.2708 2.932 47.5988 3.084C47.9348 3.228 48.2108 3.44 48.4268 3.72C48.6428 3.992 48.8028 4.324 48.9068 4.716C49.0108 5.1 49.0628 5.528 49.0628 6C49.0628 7.016 48.8348 7.796 48.3788 8.34C47.9308 8.876 47.2828 9.144 46.4348 9.144C45.9868 9.144 45.5948 9.072 45.2588 8.928C44.9308 8.776 44.6588 8.564 44.4428 8.292C44.2268 8.012 44.0668 7.68 43.9628 7.296C43.8588 6.904 43.8068 6.472 43.8068 6ZM44.8027 6C44.8027 6.304 44.8308 6.596 44.8868 6.876C44.9508 7.156 45.0468 7.4 45.1748 7.608C45.3028 7.816 45.4708 7.984 45.6788 8.112C45.8868 8.24 46.1388 8.304 46.4348 8.304C47.5228 8.312 48.0668 7.544 48.0668 6C48.0668 5.688 48.0348 5.392 47.9708 5.112C47.9148 4.832 47.8228 4.588 47.6948 4.38C47.5668 4.172 47.3988 4.008 47.1908 3.888C46.9828 3.76 46.7308 3.696 46.4348 3.696C45.3468 3.688 44.8027 4.456 44.8027 6ZM54.2483 6.348H51.5363V9H50.5763V3H51.5363V5.508H54.2483V3H55.2083V9H54.2483V6.348Z" fill="#6A6E72"/>
</svg>
